<svg xmlns="http://www.w3.org/2000/svg" width="49.16" height="47.03" viewBox="0 0 49.16 47.03">
  <metadata><?xpacket begin="﻿" id="W5M0MpCehiHzreSzNTczkc9d"?>
<x:xmpmeta xmlns:x="adobe:ns:meta/" x:xmptk="Adobe XMP Core 5.6-c142 79.160924, 2017/07/13-01:06:39        ">
   <rdf:RDF xmlns:rdf="http://www.w3.org/1999/02/22-rdf-syntax-ns#">
      <rdf:Description rdf:about=""/>
   </rdf:RDF>
</x:xmpmeta>
                                                                                                    
                                                                                                    
                                                                                                    
                                                                                                    
                                                                                                    
                                                                                                    
                                                                                                    
                                                                                                    
                                                                                                    
                                                                                                    
                                                                                                    
                                                                                                    
                                                                                                    
                                                                                                    
                                                                                                    
                                                                                                    
                                                                                                    
                                                                                                    
                                                                                                    
                                                                                                    
                           
<?xpacket end="w"?></metadata>
<defs>
    <style>
      .cls-1 {
        fill: #777;
        fill-rule: evenodd;
      }
    </style>
  </defs>
  <path id="Icon-Star" class="cls-1" d="M1046.25,2943.08a2.112,2.112,0,0,1-1.18-.35l-12.67-8.23-12.68,8.23a2.168,2.168,0,0,1-2.47-.07,2.2,2.2,0,0,1-.8-2.34l3.97-14.1-11.85-10.04a2.17,2.17,0,0,1,1.25-3.82l14.21-1.02,6.39-14.02a2.171,2.171,0,0,1,3.95,0l6.39,14.02,14.21,1.02a2.17,2.17,0,0,1,1.25,3.82l-11.85,10.04,3.97,14.1A2.165,2.165,0,0,1,1046.25,2943.08Zm-13.85-13.33a2.058,2.058,0,0,1,1.17.35l9.04,5.86-2.79-9.91a2.182,2.182,0,0,1,.68-2.24l8.86-7.5-10.19-.74a2.162,2.162,0,0,1-1.82-1.26l-4.95-10.87-4.96,10.87a2.162,2.162,0,0,1-1.82,1.26l-10.19.74,8.86,7.5a2.182,2.182,0,0,1,.68,2.24l-2.79,9.91,9.04-5.86A2.067,2.067,0,0,1,1032.4,2929.75Z" transform="translate(-1007.81 -2896.06)"/>
</svg>
