<svg xmlns="http://www.w3.org/2000/svg" width="34.094" height="45.88" viewBox="0 0 34.094 45.88">
  <metadata><?xpacket begin="﻿" id="W5M0MpCehiHzreSzNTczkc9d"?>
<x:xmpmeta xmlns:x="adobe:ns:meta/" x:xmptk="Adobe XMP Core 5.6-c142 79.160924, 2017/07/13-01:06:39        ">
   <rdf:RDF xmlns:rdf="http://www.w3.org/1999/02/22-rdf-syntax-ns#">
      <rdf:Description rdf:about=""/>
   </rdf:RDF>
</x:xmpmeta>
                                                                                                    
                                                                                                    
                                                                                                    
                                                                                                    
                                                                                                    
                                                                                                    
                                                                                                    
                                                                                                    
                                                                                                    
                                                                                                    
                                                                                                    
                                                                                                    
                                                                                                    
                                                                                                    
                                                                                                    
                                                                                                    
                                                                                                    
                                                                                                    
                                                                                                    
                                                                                                    
                           
<?xpacket end="w"?></metadata>
<defs>
    <style>
      .cls-1 {
        fill: #777;
        fill-rule: evenodd;
      }
    </style>
  </defs>
  <path id="Icon-Graph" class="cls-1" d="M713.128,2893.24a3.585,3.585,0,0,0-3.593,3.58v38.73a3.593,3.593,0,0,0,7.186,0v-38.73A3.584,3.584,0,0,0,713.128,2893.24Zm-13.45,12.78a3.585,3.585,0,0,0-3.593,3.58v25.95a3.593,3.593,0,0,0,7.186,0V2909.6A3.584,3.584,0,0,0,699.678,2906.02Zm-13.453,12.78a3.585,3.585,0,0,0-3.593,3.58v13.17a3.593,3.593,0,0,0,7.186,0v-13.17A3.584,3.584,0,0,0,686.225,2918.8Z" transform="translate(-682.625 -2893.25)"/>
</svg>
