<svg xmlns="http://www.w3.org/2000/svg" width="38.531" height="38.09" viewBox="0 0 38.531 38.09">
  <metadata><?xpacket begin="﻿" id="W5M0MpCehiHzreSzNTczkc9d"?>
<x:xmpmeta xmlns:x="adobe:ns:meta/" x:xmptk="Adobe XMP Core 5.6-c142 79.160924, 2017/07/13-01:06:39        ">
   <rdf:RDF xmlns:rdf="http://www.w3.org/1999/02/22-rdf-syntax-ns#">
      <rdf:Description rdf:about=""/>
   </rdf:RDF>
</x:xmpmeta>
                                                                                                    
                                                                                                    
                                                                                                    
                                                                                                    
                                                                                                    
                                                                                                    
                                                                                                    
                                                                                                    
                                                                                                    
                                                                                                    
                                                                                                    
                                                                                                    
                                                                                                    
                                                                                                    
                                                                                                    
                                                                                                    
                                                                                                    
                                                                                                    
                                                                                                    
                                                                                                    
                           
<?xpacket end="w"?></metadata>
<defs>
    <style>
      .cls-1 {
        fill-rule: evenodd;
      }
    </style>
  </defs>
  <path id="Icon-Basket" class="cls-1" d="M249.928,2209.01h33.04l-1.271,22.03H251.2Zm0.688-6.88h31.663a3.44,3.44,0,1,1,0,6.88H250.616A3.44,3.44,0,1,1,250.616,2202.13Zm-2.065,6.88h35.793v1.38H248.551v-1.38Zm17.9,6.89a1.371,1.371,0,0,1,1.376,1.37v8.26a1.377,1.377,0,1,1-2.753,0v-8.26A1.371,1.371,0,0,1,266.448,2215.9Zm8.26,0a1.371,1.371,0,0,1,1.376,1.37v8.26a1.377,1.377,0,1,1-2.753,0v-8.26A1.371,1.371,0,0,1,274.708,2215.9Zm-16.52,0a1.371,1.371,0,0,1,1.376,1.37v8.26a1.377,1.377,0,1,1-2.753,0v-8.26A1.371,1.371,0,0,1,258.188,2215.9Zm12.046-22.58a2.761,2.761,0,0,1,3.761,1.01l4.13,7.16a2.753,2.753,0,1,1-4.769,2.75l-4.13-7.15A2.765,2.765,0,0,1,270.234,2193.32Zm-7.572,0a2.76,2.76,0,0,0-3.761,1.01l-4.13,7.16a2.753,2.753,0,1,0,4.769,2.75l4.13-7.15A2.765,2.765,0,0,0,262.662,2193.32Z" transform="translate(-247.188 -2192.94)"/>
</svg>
